# xmcd
#
# Track frame offsets: 
#        150
#        19343
#        38585
#        56995
#        76554
#        96069
#        115822
#        134861
#        154217
#        172314
#        190312
#        205773
#        221606
#
# Disc length: 3209 seconds
#
# Revision: 1
# Processed by: cddbd v1.5.2PL0 Copyright (c) Steve Scherf et al.
# Submitted via: ExactAudioCopy v0.95b4
#
DISCID=ba0c870d
DTITLE=พินแคนแดนอิสาน - รวมเพลงนางเอก
DYEAR=2007
DGENRE=Country
TTITLE0=ส่งใจมาให้น้องด่วน
TTITLE1=ขอเพลงรอแฟน
TTITLE2=กอดอ้ายทางใจ
TTITLE3=คึดฮอด คึดฮอด
TTITLE4=หลับตาซังยังดีใจ
TTITLE5=ซัวหลายตายสา
TTITLE6=ผูกแขนเป็นน้อง
TTITLE7=อย่าลืมว่าเขาคึดฮอด
TTITLE8=คำคิงน้องแน
TTITLE9=เลขาร้านลาบ
TTITLE10=ชายในแคตตาล็อค
TTITLE11=จั่งแม่นเผิ่นเน๊าะ
TTITLE12=สาวมักม่วน
EXTD=
EXTT0=
EXTT1=
EXTT2=
EXTT3=
EXTT4=
EXTT5=
EXTT6=
EXTT7=
EXTT8=
EXTT9=
EXTT10=
EXTT11=
EXTT12=
PLAYORDER=
